<svg xmlns="http://www.w3.org/2000/svg" viewBox="0 0 2000 1861"><path fill="#232020" d="M1000.1 1715.8H117.7c-13.7 0-27.2-1.9-40.2-6.7-34.1-12.8-48.2-43-36-77.3 5.7-16 15.3-29.9 23.7-44.4l872-1509.6c6.9-12 15.6-22.4 27.3-30 25.3-16.4 54.1-13 77.1 9 7.1 6.8 13 14.7 18 23.2l893 1537.8c6.5 11.2 11.2 23.1 11.7 36.2.9 23.5-10 40.1-30.1 51.1-14.2 7.8-29.7 10.5-45.8 10.5l-888.3.2zm-866.5-87h1736L1003.9 159.2 133.6 1628.8z"/><path fill="#feca05" d="M133.6 1628.8l870.3-1469.6 865.7 1469.6h-1736zm607.3-485.4l143 .1c3.7 0 4.9-.8 5.3-4.8 3.2-35.4 18.2-64.4 47.5-85.2 3.2-2.3 3.4-3.7 1.3-6.9L784.9 808.9c-2.6-4-4.1-4.5-8.2-1.8C712.4 849 664.1 905 631.4 974.2c-24.5 51.7-37.3 106.3-38.3 163.6-.1 4.6 1.2 5.8 5.8 5.8l142-.2zm260.2 410.8c13.7.1 27.3-.7 40.9-2 53.5-5.2 103.9-20.6 151.2-46.3 3.4-1.8 3.8-3.2 1.9-6.7l-136.2-249.8c-1.1-2-1.5-4.1-5-2.4-32.5 16.4-65.4 15.9-98.3 1.5-3.7-1.6-5.1-1.4-7.1 2.2l-137.3 250.9c-1.9 3.4-1.1 4.6 2.1 6.3 58.9 31.1 121.5 46.1 187.8 46.3zm262.2-410.8l142.5.1c4.4 0 5.5-1.1 5.5-5.5-.6-43.9-8.3-86.5-23.3-127.6-31.1-85.2-84-153.3-160-203.2-4.2-2.8-6-2.3-8.7 1.9l-152.9 237.7c-1 1.6-3.6 3-.1 5.5 30 20.8 45.7 49.9 49 85.9.4 4.5 2 5.2 6.1 5.2h141.9zm-261.1 77.8c42 0 75.8-33.6 75.9-75.4.1-42-34.1-75.8-76.6-75.8-41 0-75.6 34.8-75.3 75.7.3 41.9 34.2 75.5 76 75.5z"/><path d="M740.9 1143.4c-47.3 0-94.7-.1-142 .1-4.6 0-5.9-1.1-5.8-5.8 1.1-57.3 13.8-111.9 38.3-163.6 32.8-69.2 81-125.2 145.3-167.1 4-2.6 5.6-2.2 8.2 1.8L938 1046.5c2.1 3.2 1.9 4.6-1.3 6.9-29.3 20.8-44.3 49.8-47.5 85.2-.4 4.1-1.6 4.9-5.3 4.8h-143zm260.2 410.8c-66.3-.3-128.9-15.2-187.6-46.2-3.2-1.7-3.9-2.8-2.1-6.3l137.3-250.9c2-3.6 3.4-3.8 7.1-2.2 32.9 14.4 65.8 14.9 98.3-1.5 3.5-1.8 3.9.4 5 2.4l136.2 249.8c1.9 3.4 1.5 4.8-1.9 6.7-47.3 25.7-97.7 41-151.2 46.3-13.8 1.2-27.4 2-41.1 1.9zm262.2-410.8c-47.3 0-94.7-.1-142 .1-4.1 0-5.7-.8-6.1-5.2-3.3-36-19-65.1-49-85.9-3.5-2.4-.9-3.9.1-5.5l152.9-237.7c2.7-4.2 4.4-4.7 8.7-1.9 76 49.9 128.9 118 160 203.2 15 41.2 22.7 83.7 23.3 127.6.1 4.4-1 5.5-5.5 5.5l-142.4-.2zm-261.1 77.8c-41.8 0-75.7-33.6-76-75.4-.3-40.9 34.3-75.7 75.3-75.7 42.5 0 76.7 33.8 76.6 75.8-.1 41.6-34 75.2-75.9 75.3z" fill="#232020"/><defs /></svg>