<?xml version="1.0" encoding="utf-8"?>
<!-- Generator: Adobe Illustrator 24.3.0, SVG Export Plug-In . SVG Version: 6.00 Build 0)  -->
<svg version="1.1" id="Слой_1" xmlns="http://www.w3.org/2000/svg" xmlns:xlink="http://www.w3.org/1999/xlink" x="0px" y="0px"
	 viewBox="0 0 175 208" style="enable-background:new 0 0 175 208;" xml:space="preserve">
<style type="text/css">
	.st0{fill:#FFFFFF;stroke:#000000;stroke-miterlimit:10;}
	.st1{fill:url(#SVGID_1_);}
</style>
<path class="st0" d="M80.5-8.5"/>
<path d="M0.5,207.5h68v-27h-41c0,0,0,1,0-41h-27C0.5,207.5,0.5,207.5,0.5,207.5z"/>
<linearGradient id="SVGID_1_" gradientUnits="userSpaceOnUse" x1="0.5" y1="34.5" x2="68.5" y2="34.5">
	<stop  offset="0" style="stop-color:#FFFFFF"/>
	<stop  offset="0" style="stop-color:#000000"/>
</linearGradient>
<path class="st1" d="M0.5,0.5l0,68h27l0-41c0,0-1,0,41,0v-27C0.5,0.5,0.5,0.5,0.5,0.5z"/>
<path class="st0" d="M61.1-3"/>
<path d="M174.5,207.5v-68h-27v41c0,0,1,0-41,0v27C174.5,207.5,174.5,207.5,174.5,207.5z"/>
<path d="M174.5,0.5l-68,0l0,27l41,0c0,0,0-1,0,41l27,0C174.5,0.5,174.5,0.5,174.5,0.5z"/>
</svg>
