<?xml version="1.0" encoding="utf-8"?>
<!-- Generator: Adobe Illustrator 24.3.0, SVG Export Plug-In . SVG Version: 6.00 Build 0)  -->
<svg version="1.1" id="Capa_1" xmlns="http://www.w3.org/2000/svg" xmlns:xlink="http://www.w3.org/1999/xlink" x="0px" y="0px"
	 viewBox="0 0 16 16" style="enable-background:new 0 0 16 16;" xml:space="preserve">
<style type="text/css">
	.st0{fill:#030104;}
</style>
<g>
	<path class="st0" d="M13,0H3C2.4,0,2,0.4,2,1v14c0,0.6,0.5,1,1,1h10c0.6,0,1-0.4,1-1V1C14,0.4,13.5,0,13,0z M6,14H4v-2h2V14z M6,11
		H4V9h2V11z M6,8H4V6h2V8z M9,14H7v-2h2V14z M9,11H7V9h2V11z M9,8H7V6h2V8z M12,14h-2v-2h2V14z M12,11h-2V9h2V11z M12,8h-2V6h2V8z
		 M13,4H3V1h10V4z"/>
</g>
</svg>
