<?xml version="1.0" standalone="no"?>
<svg version="1.0" xmlns="http://www.w3.org/2000/svg"
 width="512.000000pt" height="512.000000pt" viewBox="0 0 512.000000 512.000000"
 preserveAspectRatio="xMidYMid meet">
<g transform="translate(0.000000,512.000000) scale(0.100000,-0.100000)" stroke="none">
<path d="M1506 5101 c-46 -31 -66 -69 -66 -131 0 -62 20 -100 66 -131 24 -16 48 -19 147 -19 l117 0 0 -705 0 -705 -275 -550 -275 -550 450 0 449 0 26 53 c78 158 237 257 414 257 182 0 334 -94 416 -259 l26 -51 450 0 449 0 -275 550 -275 550 0 705 0 705 118 0 c98 0 122 3 146 19 46 31 66 69 66 131 0 62 -20 100 -66 131 -28 18 -67 19 -1054 19 -987 0 -1026 -1 -1054 -19z"/>
<path d="M2469 2307 c-55 -37 -79 -81 -79 -147 0 -102 68 -170 170 -170 102 0 170 68 170 170 0 102 -68 170 -170 170 -43 0 -65 -6 -91 -23z"/>
<path d="M722 1303 c-194 -390 -357 -728 -362 -753 -32 -150 14 -310 119 -416 58 -59 104 -88 180 -114 60 -20 76 -20 1901 -20 1816 0 1841 0 1900 20 78 26 114 49 176 110 110 109 157 267 124 420 -5 25 -168 363 -362 753 l-353 707 -522 0 -522 0 -26 -53 c-168 -342 -662 -342 -830 0 l-26 53 -522 0 -522 0 -353 -707z m1368 249 c31 -12 82 -43 115 -69 235 -191 235 -535 0 -726 -81 -65 -148 -89 -265 -95 -79 -3 -106 0 -159 18 -199 67 -321 236 -321 442 1 197 124 371 309 435 87 31 236 28 321 -5z m1027 7 c118 -73 63 -259 -77 -259 -107 0 -175 114 -125 211 35 66 134 90 202 48z m480 -320 c118 -73 63 -259 -77 -259 -107 0 -175 114 -125 211 35 66 134 90 202 48z m-640 -320 c118 -73 63 -259 -77 -259 -107 0 -175 114 -125 211 35 66 134 90 202 48z"/>
<path d="M1829 1267 c-55 -37 -79 -81 -79 -147 0 -102 68 -170 170 -170 102 0 170 68 170 170 0 66 -24 110 -79 147 -47 32 -135 32 -182 0z"/></g></svg>
