<svg version="1.1" xmlns="http://www.w3.org/2000/svg" xmlns:xlink="http://www.w3.org/1999/xlink" x="0px" y="0px" viewBox="0 0 100 100" enable-background="new 0 0 100 100" xml:space="preserve"><g transform="rotate(0, 50, 50)"><path fill="none" stroke="#000000" stroke-width="2" d="M99,50L74.5,7.6h-49L1,50l24.5,42.4h49L99,50z M92,52L70,89 M27,13h46 M8,50l22,39"/></g><g><path fill="#2F3435" d="M48.2,65.7l44.1-42.5L81.1,11.5L36.9,54.1c-0.2,0.2-0.4,0.4-0.5,0.7l-3.6,12.7c0,0,0,0.1,0,0.1 c0,0.1,0,0.1,0,0.2c0,0,0,0.1,0,0.1c0,0,0,0.1,0,0.1c0,0.1,0,0.1,0,0.2c0,0,0,0.1,0,0.1c0,0,0,0,0,0.1c0,0,0,0.1,0.1,0.1 c0,0,0,0.1,0.1,0.1c0,0,0,0.1,0.1,0.1c0,0,0,0.1,0.1,0.1c0,0,0.1,0.1,0.1,0.1c0,0,0.1,0.1,0.1,0.1c0,0,0.1,0.1,0.1,0.1 c0,0,0.1,0.1,0.1,0.1c0,0,0.1,0,0.1,0.1c0,0,0.1,0,0.1,0.1c0,0,0,0,0.1,0c0,0,0,0,0.1,0c0,0,0.1,0,0.2,0c0,0,0.1,0,0.1,0 c0,0,0.1,0,0.1,0c0.1,0,0.1,0,0.2,0c0,0,0.1,0,0.1,0l12.9-3.1C47.7,66.1,48,66,48.2,65.7z M38.1,64.2c-0.3-0.3-0.8-0.5-1.2-0.4 l2.1-7.4l7,7.2l-7.5,1.8C38.5,65,38.4,64.6,38.1,64.2z"/><path fill="#2F3435" d="M94.3,21.3L83.1,9.6l4.5-4.3c0,0,7.7,2.9,11.2,11.6L94.3,21.3z"/></g></svg>